<svg width="392" height="62" viewBox="0 0 392 62" fill="none" xmlns="http://www.w3.org/2000/svg">
<path d="M87.376 48.8962H102.096V56.0002H78.416V11.3282H87.376V48.8962ZM141.263 20.5442V56.0002H132.239V51.5202C131.087 53.0562 129.572 54.2722 127.695 55.1682C125.86 56.0215 123.855 56.4482 121.679 56.4482C118.906 56.4482 116.452 55.8722 114.319 54.7202C112.186 53.5255 110.5 51.7975 109.263 49.5362C108.068 47.2322 107.471 44.5015 107.471 41.3442V20.5442H116.431V40.0642C116.431 42.8802 117.135 45.0562 118.543 46.5922C119.951 48.0855 121.871 48.8322 124.303 48.8322C126.778 48.8322 128.719 48.0855 130.127 46.5922C131.535 45.0562 132.239 42.8802 132.239 40.0642V20.5442H141.263ZM194.136 20.0322C198.488 20.0322 201.986 21.3762 204.632 24.0642C207.32 26.7095 208.664 30.4215 208.664 35.2002V56.0002H199.704V36.4162C199.704 33.6429 199 31.5309 197.592 30.0802C196.184 28.5869 194.264 27.8402 191.832 27.8402C189.4 27.8402 187.458 28.5869 186.008 30.0802C184.6 31.5309 183.896 33.6429 183.896 36.4162V56.0002H174.936V36.4162C174.936 33.6429 174.232 31.5309 172.824 30.0802C171.416 28.5869 169.496 27.8402 167.064 27.8402C164.589 27.8402 162.626 28.5869 161.176 30.0802C159.768 31.5309 159.064 33.6429 159.064 36.4162V56.0002H150.104V20.5442H159.064V24.8322C160.216 23.3389 161.688 22.1655 163.48 21.3122C165.314 20.4589 167.32 20.0322 169.496 20.0322C172.269 20.0322 174.744 20.6295 176.92 21.8242C179.096 22.9762 180.781 24.6402 181.976 26.8162C183.128 24.7682 184.792 23.1255 186.968 21.8882C189.186 20.6509 191.576 20.0322 194.136 20.0322ZM221.71 16.3202C220.131 16.3202 218.809 15.8295 217.742 14.8482C216.718 13.8242 216.206 12.5655 216.206 11.0722C216.206 9.57892 216.718 8.34152 217.742 7.36022C218.809 6.33622 220.131 5.82422 221.71 5.82422C223.289 5.82422 224.59 6.33622 225.614 7.36022C226.681 8.34152 227.214 9.57892 227.214 11.0722C227.214 12.5655 226.681 13.8242 225.614 14.8482C224.59 15.8295 223.289 16.3202 221.71 16.3202ZM226.126 20.5442V56.0002H217.166V20.5442H226.126ZM254.627 20.0322C258.851 20.0322 262.264 21.3762 264.867 24.0642C267.469 26.7095 268.771 30.4215 268.771 35.2002V56.0002H259.811V36.4162C259.811 33.6002 259.107 31.4455 257.699 29.9522C256.291 28.4162 254.371 27.6482 251.939 27.6482C249.464 27.6482 247.501 28.4162 246.051 29.9522C244.643 31.4455 243.939 33.6002 243.939 36.4162V56.0002H234.979V20.5442H243.939V24.9602C245.133 23.4242 246.648 22.2295 248.483 21.3762C250.36 20.4802 252.408 20.0322 254.627 20.0322ZM274.987 38.1442C274.987 34.5602 275.691 31.3815 277.099 28.6082C278.55 25.8349 280.491 23.7015 282.923 22.2082C285.398 20.7149 288.15 19.9682 291.179 19.9682C293.824 19.9682 296.128 20.5015 298.091 21.5682C300.096 22.6349 301.696 23.9789 302.891 25.6002V20.5442H311.915V56.0002H302.891V50.8162C301.739 52.4802 300.139 53.8669 298.091 54.9762C296.086 56.0429 293.76 56.5762 291.115 56.5762C288.128 56.5762 285.398 55.8082 282.923 54.2722C280.491 52.7362 278.55 50.5815 277.099 47.8082C275.691 44.9922 274.987 41.7709 274.987 38.1442ZM302.891 38.2722C302.891 36.0962 302.464 34.2402 301.611 32.7042C300.758 31.1255 299.606 29.9309 298.155 29.1202C296.704 28.2669 295.147 27.8402 293.483 27.8402C291.819 27.8402 290.283 28.2455 288.875 29.0562C287.467 29.8669 286.315 31.0615 285.419 32.6402C284.566 34.1762 284.139 36.0109 284.139 38.1442C284.139 40.2775 284.566 42.1549 285.419 43.7762C286.315 45.3549 287.467 46.5709 288.875 47.4242C290.326 48.2775 291.862 48.7042 293.483 48.7042C295.147 48.7042 296.704 48.2989 298.155 47.4882C299.606 46.6349 300.758 45.4402 301.611 43.9042C302.464 42.3255 302.891 40.4482 302.891 38.2722ZM363.308 47.4882H345.516L342.572 56.0002H333.164L349.228 11.2642H359.66L375.724 56.0002H366.252L363.308 47.4882ZM360.876 40.3202L354.412 21.6322L347.948 40.3202H360.876ZM386.273 16.3202C384.694 16.3202 383.371 15.8295 382.305 14.8482C381.281 13.8242 380.769 12.5655 380.769 11.0722C380.769 9.57892 381.281 8.34152 382.305 7.36022C383.371 6.33622 384.694 5.82422 386.273 5.82422C387.851 5.82422 389.153 6.33622 390.177 7.36022C391.243 8.34152 391.777 9.57892 391.777 11.0722C391.777 12.5655 391.243 13.8242 390.177 14.8482C389.153 15.8295 387.851 16.3202 386.273 16.3202ZM390.689 20.5442V56.0002H381.729V20.5442H390.689Z" fill="white"/>
<path d="M46.4797 46.5196V46.5297C46.4697 55.0841 39.5341 62.0097 30.9796 62.0097C22.4252 62.0097 15.4795 55.0741 15.4795 46.5196V46.4896H15.4895C24.0339 46.4896 30.9696 39.564 30.9896 31.0195H31.0097C39.5541 31.0396 46.4797 37.9752 46.4797 46.5196Z" fill="#F5A623"/>
<path d="M62 31.0294C62 39.5839 55.064 46.5295 46.5099 46.5295H46.4798V46.5195C46.4798 37.9751 39.5542 31.0394 31.0098 31.0194V30.9993C31.0298 22.4549 37.9655 15.5293 46.5099 15.5293H46.5199C55.074 15.5393 62 22.475 62 31.0294Z" fill="#D0021B"/>
<path d="M46.5203 15.5001V15.5302H46.5102C37.9658 15.5302 31.0302 22.4558 31.0101 31.0002H30.9901C22.4456 30.9802 15.52 24.0445 15.52 15.5001V15.4901C15.5305 6.9356 22.4657 0 31.0201 0C39.5746 0 46.5203 6.9457 46.5203 15.5001Z" fill="#4A90E2"/>
<path d="M30.9902 30.9994V31.0195C30.9702 39.5639 24.0345 46.4895 15.4901 46.4895H15.4801C6.9256 46.4795 0 39.5443 0 30.9899C0 22.4354 6.9356 15.4897 15.4901 15.4897H15.5202V15.4998C15.5202 24.0442 22.4458 30.9793 30.9902 30.9994Z" fill="#50E3C2"/>
</svg>
