<?xml version="1.0" encoding="UTF-8"?>
<svg id="Layer_2" data-name="Layer 2" xmlns="http://www.w3.org/2000/svg" viewBox="0 0 1298.35 1298.56">
  <defs>
    <style>
      .cls-1 {
        fill: #d0021b;
      }

      .cls-1, .cls-2, .cls-3, .cls-4 {
        stroke-width: 0px;
      }

      .cls-2 {
        fill: #50e3c2;
      }

      .cls-3 {
        fill: #f5a623;
      }

      .cls-4 {
        fill: #4a90e2;
      }
    </style>
  </defs>
  <g id="Layer_1-2" data-name="Layer 1">
    <g>
      <path class="cls-3" d="m973.34,974.18v.21c-.21,179.14-145.45,324.17-324.59,324.17s-324.59-145.24-324.59-324.38v-.63h.21c178.93,0,324.17-145.03,324.59-323.96h.42c178.93.42,323.96,145.66,323.96,324.59Z"/>
      <path class="cls-1" d="m1298.35,649.8c0,179.14-145.24,324.59-324.38,324.59h-.63v-.21c0-178.93-145.03-324.17-323.96-324.59v-.42c.42-178.93,145.66-323.96,324.59-323.96h.21c179.14.21,324.17,145.45,324.17,324.59Z"/>
      <path class="cls-4" d="m974.18,324.59v.63h-.21c-178.93,0-324.17,145.03-324.59,323.96h-.42c-178.93-.42-323.96-145.66-323.96-324.59v-.21C325.22,145.24,470.45,0,649.59,0s324.59,145.45,324.59,324.59Z"/>
      <path class="cls-2" d="m648.97,649.17v.42c-.42,178.93-145.66,323.96-324.59,323.96h-.21C145.03,973.34,0,828.11,0,648.97s145.24-324.59,324.38-324.59h.63v.21c0,178.93,145.03,324.17,323.96,324.59Z"/>
    </g>
  </g>
</svg>